<svg width="24" height="24" viewBox="0 0 24 24" fill="none" xmlns="http://www.w3.org/2000/svg">
<path fill-rule="evenodd" clip-rule="evenodd" d="M17.5 0H6.5C2.91243 0.00550664 0.00550664 2.91243 0 6.5V17.5C0.00550664 21.0876 2.91243 23.9945 6.5 24H17.5C21.0876 23.9945 23.9945 21.0876 24 17.5V6.5C23.9945 2.91243 21.0876 0.00550664 17.5 0ZM12 17.5C8.96243 17.5 6.5 15.0376 6.5 12C6.5 8.96243 8.96243 6.5 12 6.5C15.0376 6.5 17.5 8.96243 17.5 12C17.5 13.4587 16.9205 14.8576 15.8891 15.8891C14.8576 16.9205 13.4587 17.5 12 17.5ZM17 5C17 5.82843 17.6716 6.5 18.5 6.5C18.8978 6.5 19.2794 6.34196 19.5607 6.06066C19.842 5.77936 20 5.39782 20 5C20 4.17157 19.3284 3.5 18.5 3.5C17.6716 3.5 17 4.17157 17 5Z" fill="white"/>
</svg>
