<svg width="24" height="25" viewBox="0 0 24 25" fill="none" xmlns="http://www.w3.org/2000/svg">
<path fill-rule="evenodd" clip-rule="evenodd" d="M6.26087 3.5C6.26087 5.15685 4.85933 6.5 3.13043 6.5C1.40154 6.5 0 5.15685 0 3.5C0 1.84315 1.40154 0.5 3.13043 0.5C4.85933 0.5 6.26087 1.84315 6.26087 3.5ZM0 9C0 8.72386 0.223858 8.5 0.5 8.5H5.76087C6.03701 8.5 6.26087 8.72386 6.26087 9V24C6.26087 24.2761 6.03701 24.5 5.76087 24.5H0.5C0.223858 24.5 0 24.2761 0 24V9ZM23.398 24.5H19.786C19.4535 24.5 19.1839 24.2376 19.1839 23.9139V15.1225C19.1839 13.5041 17.8363 12.192 16.1739 12.192C14.5115 12.192 13.1639 13.5041 13.1639 15.1225V23.9139C13.1639 24.2376 12.8944 24.5 12.5619 24.5H8.94983C8.61735 24.5 8.34783 24.2376 8.34783 23.9139V8.67549C8.34783 8.3518 8.61735 8.0894 8.94983 8.0894H12.5619C12.8944 8.0894 13.1639 8.3518 13.1639 8.67549C13.163 8.87654 13.2908 9.05685 13.4842 9.12745C13.6776 9.19804 13.8956 9.144 14.0308 8.99198C15.0299 7.99313 16.4164 7.45234 17.8475 7.5033C21.4355 7.5033 24 9.6484 24 14.0675V23.9139C24 24.2376 23.7305 24.5 23.398 24.5Z" fill="white"/>
</svg>
