<svg width="70" height="55" viewBox="0 0 70 55" fill="none" xmlns="http://www.w3.org/2000/svg">
<path d="M64.1667 0H5.83333C2.625 0 0 2.67228 0 5.9384V24.4677H17.939L21.859 14.2581C22.3067 13.0927 23.4544 12.3296 24.6502 12.3712C25.8781 12.4038 26.9558 13.2159 27.3438 14.4021L32.8898 31.3815L38.8748 16.8873C39.3152 15.8229 40.32 15.1147 41.456 15.0717C42.6256 15.0212 43.6479 15.6596 44.1613 16.6884L48.0638 24.4692H52.0144C53.6244 24.4692 54.931 25.7994 54.931 27.4384C54.931 29.0774 53.6244 30.4076 52.0144 30.4076H46.2758C45.1792 30.4076 44.1787 29.7796 43.68 28.7879L41.8206 25.0764L35.2596 40.9616C34.8046 42.0662 33.7415 42.7832 32.5719 42.7832C32.534 42.7832 32.496 42.7832 32.4581 42.7803C31.2433 42.7342 30.186 41.9251 29.8025 40.7508L24.3542 24.0713L22.6479 28.5177C22.2104 29.6579 21.1327 30.4046 19.931 30.4046H0V49.0616C0 52.3277 2.625 55 5.83333 55H64.1667C67.375 55 70 52.3277 70 49.0616V5.93543C70 2.67228 67.375 0 64.1667 0Z" fill="#09A4D8"/>
</svg>
