<svg width="189" height="40" viewBox="0 0 189 40" fill="none" xmlns="http://www.w3.org/2000/svg">
<path d="M45.8333 0.501038H4.16667C1.875 0.501038 0 2.39577 0 4.71156V17.8495H12.8135L15.6135 10.6105C15.9333 9.78419 16.7531 9.24314 17.6073 9.27262C18.4844 9.29577 19.2542 9.87156 19.5312 10.7126L23.4927 22.7516L27.7677 12.4747C28.0823 11.72 28.8 11.2179 29.6115 11.1874C30.4469 11.1516 31.1771 11.6042 31.5438 12.3337L34.3312 17.8505H37.1531C38.3031 17.8505 39.2365 18.7937 39.2365 19.9558C39.2365 21.1179 38.3031 22.061 37.1531 22.061H33.0542C32.2708 22.061 31.5563 21.6158 31.2 20.9126L29.8719 18.281L25.1854 29.5442C24.8604 30.3274 24.101 30.8358 23.2656 30.8358C23.2385 30.8358 23.2115 30.8358 23.1844 30.8337C22.3167 30.801 21.5615 30.2274 21.2875 29.3947L17.3958 17.5684L16.1771 20.721C15.8646 21.5295 15.0948 22.0589 14.2365 22.0589H0V35.2874C0 37.6031 1.875 39.4979 4.16667 39.4979H45.8333C48.125 39.4979 50 37.6031 50 35.2874V4.70946C50 2.39577 48.125 0.501038 45.8333 0.501038Z" fill="#09A4D8"/>
<path d="M68.448 28C68.288 28 68.152 27.944 68.04 27.832C67.928 27.72 67.872 27.584 67.872 27.424V11.776C67.872 11.6 67.928 11.464 68.04 11.368C68.152 11.256 68.288 11.2 68.448 11.2H70.68C70.856 11.2 70.992 11.256 71.088 11.368C71.2 11.464 71.256 11.6 71.256 11.776V25.144H78.864C79.04 25.144 79.184 25.2 79.296 25.312C79.408 25.424 79.464 25.568 79.464 25.744V27.424C79.464 27.6 79.408 27.744 79.296 27.856C79.184 27.952 79.04 28 78.864 28H68.448ZM86.6944 28.24C84.9184 28.24 83.5024 27.728 82.4464 26.704C81.4064 25.664 80.8544 24.208 80.7904 22.336L80.7664 21.736L80.7904 21.136C80.8704 19.312 81.4304 17.88 82.4704 16.84C83.5264 15.8 84.9344 15.28 86.6944 15.28C88.5824 15.28 90.0384 15.856 91.0624 17.008C92.1024 18.16 92.6224 19.696 92.6224 21.616V22.12C92.6224 22.28 92.5664 22.416 92.4544 22.528C92.3424 22.64 92.1984 22.696 92.0224 22.696H84.0544V22.888C84.0864 23.768 84.3264 24.512 84.7744 25.12C85.2384 25.712 85.8704 26.008 86.6704 26.008C87.6144 26.008 88.3744 25.64 88.9504 24.904C89.0944 24.728 89.2064 24.616 89.2864 24.568C89.3824 24.52 89.5184 24.496 89.6944 24.496H91.7584C91.9024 24.496 92.0224 24.544 92.1184 24.64C92.2304 24.72 92.2864 24.824 92.2864 24.952C92.2864 25.336 92.0544 25.792 91.5904 26.32C91.1424 26.832 90.4944 27.28 89.6464 27.664C88.7984 28.048 87.8144 28.24 86.6944 28.24ZM89.3584 20.68V20.608C89.3584 19.664 89.1184 18.904 88.6384 18.328C88.1744 17.752 87.5264 17.464 86.6944 17.464C85.8624 17.464 85.2144 17.752 84.7504 18.328C84.2864 18.904 84.0544 19.664 84.0544 20.608V20.68H89.3584ZM95.6739 22.168C95.5139 22.168 95.3779 22.112 95.2659 22C95.1539 21.888 95.0979 21.752 95.0979 21.592V20.008C95.0979 19.832 95.1539 19.696 95.2659 19.6C95.3779 19.488 95.5139 19.432 95.6739 19.432H103.042C103.218 19.432 103.354 19.488 103.45 19.6C103.562 19.696 103.618 19.832 103.618 20.008V21.592C103.618 21.752 103.562 21.888 103.45 22C103.354 22.112 103.218 22.168 103.042 22.168H95.6739ZM107.471 28C107.311 28 107.175 27.944 107.063 27.832C106.951 27.72 106.895 27.584 106.895 27.424V11.8C106.895 11.624 106.943 11.48 107.039 11.368C107.151 11.256 107.295 11.2 107.471 11.2H114.431C116.303 11.2 117.695 11.616 118.607 12.448C119.535 13.264 119.999 14.384 119.999 15.808C119.999 16.64 119.791 17.352 119.375 17.944C118.975 18.52 118.503 18.936 117.959 19.192C118.631 19.496 119.191 19.992 119.639 20.68C120.103 21.368 120.335 22.152 120.335 23.032C120.335 24.52 119.831 25.72 118.823 26.632C117.831 27.544 116.431 28 114.623 28H107.471ZM113.999 18.088C114.831 18.088 115.463 17.888 115.895 17.488C116.327 17.088 116.543 16.552 116.543 15.88C116.543 15.192 116.327 14.664 115.895 14.296C115.463 13.912 114.831 13.72 113.999 13.72H110.231V18.088H113.999ZM114.239 25.456C115.071 25.456 115.719 25.232 116.183 24.784C116.647 24.32 116.879 23.736 116.879 23.032C116.879 22.312 116.647 21.728 116.183 21.28C115.719 20.816 115.071 20.584 114.239 20.584H110.231V25.456H114.239ZM128.437 28.24C126.661 28.24 125.245 27.728 124.189 26.704C123.149 25.664 122.597 24.208 122.533 22.336L122.509 21.736L122.533 21.136C122.613 19.312 123.173 17.88 124.213 16.84C125.269 15.8 126.677 15.28 128.437 15.28C130.325 15.28 131.781 15.856 132.805 17.008C133.845 18.16 134.365 19.696 134.365 21.616V22.12C134.365 22.28 134.309 22.416 134.197 22.528C134.085 22.64 133.941 22.696 133.765 22.696H125.797V22.888C125.829 23.768 126.069 24.512 126.517 25.12C126.981 25.712 127.613 26.008 128.413 26.008C129.357 26.008 130.117 25.64 130.693 24.904C130.837 24.728 130.949 24.616 131.029 24.568C131.125 24.52 131.261 24.496 131.437 24.496H133.501C133.645 24.496 133.765 24.544 133.861 24.64C133.973 24.72 134.029 24.824 134.029 24.952C134.029 25.336 133.797 25.792 133.333 26.32C132.885 26.832 132.237 27.28 131.389 27.664C130.541 28.048 129.557 28.24 128.437 28.24ZM131.101 20.68V20.608C131.101 19.664 130.861 18.904 130.381 18.328C129.917 17.752 129.269 17.464 128.437 17.464C127.605 17.464 126.957 17.752 126.493 18.328C126.029 18.904 125.797 19.664 125.797 20.608V20.68H131.101ZM140.536 28.24C139.72 28.24 138.968 28.08 138.28 27.76C137.608 27.424 137.072 26.976 136.672 26.416C136.288 25.856 136.096 25.24 136.096 24.568C136.096 23.48 136.536 22.6 137.416 21.928C138.296 21.256 139.504 20.8 141.04 20.56L144.328 20.08V19.576C144.328 18.872 144.152 18.344 143.8 17.992C143.448 17.64 142.88 17.464 142.096 17.464C141.568 17.464 141.136 17.568 140.8 17.776C140.48 17.968 140.224 18.16 140.032 18.352C139.84 18.56 139.712 18.696 139.648 18.76C139.584 18.952 139.464 19.048 139.288 19.048H137.44C137.296 19.048 137.168 19 137.056 18.904C136.96 18.808 136.912 18.68 136.912 18.52C136.928 18.12 137.12 17.664 137.488 17.152C137.872 16.64 138.456 16.2 139.24 15.832C140.024 15.464 140.984 15.28 142.12 15.28C144.008 15.28 145.384 15.704 146.248 16.552C147.112 17.4 147.544 18.512 147.544 19.888V27.424C147.544 27.584 147.488 27.72 147.376 27.832C147.28 27.944 147.144 28 146.968 28H145.024C144.864 28 144.728 27.944 144.616 27.832C144.504 27.72 144.448 27.584 144.448 27.424V26.488C144.096 27 143.592 27.424 142.936 27.76C142.296 28.08 141.496 28.24 140.536 28.24ZM141.352 25.96C142.232 25.96 142.952 25.672 143.512 25.096C144.072 24.52 144.352 23.68 144.352 22.576V22.072L141.952 22.456C141.024 22.6 140.32 22.832 139.84 23.152C139.376 23.472 139.144 23.864 139.144 24.328C139.144 24.84 139.36 25.24 139.792 25.528C140.224 25.816 140.744 25.96 141.352 25.96ZM155.255 28.24C153.783 28.24 152.623 27.76 151.775 26.8C150.927 25.824 150.503 24.504 150.503 22.84V16.096C150.503 15.936 150.559 15.8 150.671 15.688C150.783 15.576 150.919 15.52 151.079 15.52H153.191C153.367 15.52 153.503 15.576 153.599 15.688C153.711 15.784 153.767 15.92 153.767 16.096V22.696C153.767 24.68 154.639 25.672 156.383 25.672C157.215 25.672 157.871 25.408 158.351 24.88C158.847 24.352 159.095 23.624 159.095 22.696V16.096C159.095 15.936 159.151 15.8 159.263 15.688C159.375 15.576 159.511 15.52 159.671 15.52H161.783C161.959 15.52 162.095 15.576 162.191 15.688C162.303 15.784 162.359 15.92 162.359 16.096V27.424C162.359 27.584 162.303 27.72 162.191 27.832C162.095 27.944 161.959 28 161.783 28H159.839C159.679 28 159.543 27.944 159.431 27.832C159.319 27.72 159.263 27.584 159.263 27.424V26.44C158.367 27.64 157.031 28.24 155.255 28.24ZM171.169 28C169.713 28 168.617 27.624 167.881 26.872C167.161 26.104 166.801 24.984 166.801 23.512V18.064H164.905C164.745 18.064 164.609 18.008 164.497 17.896C164.385 17.768 164.329 17.624 164.329 17.464V16.096C164.329 15.936 164.385 15.8 164.497 15.688C164.609 15.576 164.745 15.52 164.905 15.52H166.801V11.536C166.801 11.36 166.857 11.224 166.969 11.128C167.081 11.016 167.217 10.96 167.377 10.96H169.321C169.497 10.96 169.633 11.016 169.729 11.128C169.841 11.224 169.897 11.36 169.897 11.536V15.52H172.897C173.073 15.52 173.209 15.576 173.305 15.688C173.417 15.784 173.473 15.92 173.473 16.096V17.464C173.473 17.64 173.417 17.784 173.305 17.896C173.193 18.008 173.057 18.064 172.897 18.064H169.897V23.272C169.897 23.96 170.017 24.48 170.257 24.832C170.497 25.184 170.897 25.36 171.457 25.36H173.113C173.273 25.36 173.409 25.416 173.521 25.528C173.633 25.64 173.689 25.776 173.689 25.936V27.424C173.689 27.584 173.633 27.72 173.521 27.832C173.425 27.944 173.289 28 173.113 28H171.169ZM178.074 32.56C177.946 32.56 177.834 32.512 177.738 32.416C177.642 32.32 177.594 32.208 177.594 32.08C177.594 31.936 177.626 31.808 177.69 31.696L179.562 27.256L174.954 16.384C174.89 16.24 174.858 16.128 174.858 16.048C174.874 15.904 174.93 15.784 175.026 15.688C175.122 15.576 175.242 15.52 175.386 15.52H177.33C177.634 15.52 177.85 15.672 177.978 15.976L181.17 23.824L184.458 15.976C184.586 15.672 184.802 15.52 185.106 15.52H187.026C187.154 15.52 187.266 15.568 187.362 15.664C187.474 15.76 187.53 15.872 187.53 16C187.53 16.112 187.498 16.24 187.434 16.384L180.642 32.104C180.498 32.408 180.274 32.56 179.97 32.56H178.074Z" fill="#0F1C49"/>
</svg>
