<svg width="80" height="75" viewBox="0 0 80 75" fill="none" xmlns="http://www.w3.org/2000/svg">
<path d="M1 44.6963H20.5C21.0337 44.6963 21.5363 44.4424 21.8565 44.0111L24.9969 39.7841C25.3267 39.3392 25.8498 39.0836 26.3998 39.0986C26.9499 39.1136 27.4585 39.3972 27.7642 39.8594L31.5963 45.6828C31.9319 46.1903 32.5094 46.4792 33.1124 46.4411C33.7154 46.403 34.2528 46.0436 34.523 45.4978L39.7457 34.9472C40.0582 34.3154 40.7227 33.9422 41.419 34.0073C42.1152 34.0725 42.7005 34.5627 42.8928 35.2418L47.2811 50.756C47.4726 51.4355 48.0574 51.9265 48.7538 51.9925C49.4501 52.0584 50.1151 51.6857 50.4283 51.054L53.0972 45.6622C53.3838 45.0814 53.9707 44.714 54.6131 44.7134H79" stroke="#0C488E" stroke-width="2" stroke-linecap="round" stroke-linejoin="round"/>
<path d="M70.7907 38C73.4029 32.8533 74.8403 27.1961 75 21.4326C75 -4.43285 43.503 -6.45122 39.5 19.4512C35.497 -6.45122 4 -4.43285 4 23.4206C4.06425 28.4335 5.11046 33.3857 7.08005 38" stroke="#08B3E3" stroke-width="2" stroke-linecap="round" stroke-linejoin="round"/>
<path d="M15 52C21.7716 60.2974 29.7835 67.6083 38.7813 73.7003C39.4075 74.1228 40.2533 74.0962 40.8488 73.6354C49.0551 67.2285 56.4848 59.9719 63 52" stroke="#08B3E3" stroke-width="2" stroke-linecap="round" stroke-linejoin="round"/>
</svg>
