<svg width="80" height="80" viewBox="0 0 80 80" fill="none" xmlns="http://www.w3.org/2000/svg">
<circle cx="58.5" cy="28.5" r="20.5" stroke="#0C488E" stroke-width="2" stroke-linecap="round" stroke-linejoin="round"/>
<path d="M68 22L58.038 34.9944C57.5888 35.5771 56.9035 35.9414 56.1587 35.9935C55.4138 36.0456 54.6823 35.7804 54.1528 35.2661L49 30.2335" stroke="#08B3E3" stroke-width="2" stroke-linecap="round" stroke-linejoin="round"/>
<path d="M49.7918 2.35652C47.9718 1.46503 45.9746 1.00121 43.9508 1C38.4645 1.00217 33.3649 3.84615 30.4508 8.5287C27.5352 3.8461 22.4346 1.00229 16.9475 1C8.14051 1 1 9.76991 1 20.8934C1 32.9291 4.83117 40.6104 9.72954 45.5312C7.15715 51.8316 5.85702 58.5852 5.9051 65.3975C5.89984 69.0986 6.26984 72.7905 7.00934 76.4158C7.32154 77.9205 8.63785 78.9988 10.1638 79C11.8762 78.9969 13.3134 77.6994 13.5035 75.9851C14.8501 63.6611 21.9199 54.2808 30.4542 54.2808C38.9885 54.2808 46.0717 63.6679 47.4049 75.9851C47.595 77.6994 49.0322 78.9969 50.7445 79C52.2697 78.9985 53.5849 77.92 53.8957 76.4158C54.6368 72.7907 55.0068 69.0986 54.9999 65.3975C55.001 61.8831 54.6627 58.3769 53.9899 54.9285" stroke="#08B3E3" stroke-width="2" stroke-linecap="round" stroke-linejoin="round"/>
</svg>
